<svg width="36" height="38" viewBox="0 0 36 38" fill="none" xmlns="http://www.w3.org/2000/svg">
<path d="M35.1852 9.49984L32.6719 9.49984C32.3419 9.49984 32.0151 9.56129 31.7101 9.68063C31.4053 9.79997 31.1283 9.97488 30.8947 10.1954C30.6614 10.4161 30.4763 10.6779 30.35 10.9659C30.2237 11.2541 30.1587 11.563 30.1587 11.8749L30.1587 21.3756C30.1587 24.5251 28.8348 27.5455 26.4782 29.7726C24.1215 31.9996 20.9254 33.2508 17.5926 33.2508C15.9424 33.2508 14.3083 32.9436 12.7837 32.3469C11.2591 31.7501 9.87385 30.8753 8.70696 29.7726C7.54009 28.6699 6.61449 27.3608 5.983 25.92C5.3515 24.4793 5.02649 22.9351 5.02651 21.3756L5.02651 11.8756C5.0266 11.5637 4.96167 11.2547 4.83542 10.9665C4.70916 10.6783 4.52405 10.4163 4.29067 10.1958C4.05726 9.97506 3.78017 9.80015 3.4752 9.68063C3.17024 9.56129 2.84337 9.49984 2.51325 9.49984L-1.60207e-06 9.49984L-9.34534e-07 21.3751C-8.11942e-07 23.5583 0.455047 25.7201 1.33916 27.7372C2.22327 29.7542 3.51914 31.587 5.15276 33.1307C6.78639 34.6745 8.72579 35.8991 10.8602 36.7346C12.9946 37.57 15.2823 38 17.5926 38C22.2584 38 26.7332 36.2485 30.0324 33.1307C33.3316 30.0129 35.1852 25.7843 35.1852 21.3751L35.1852 9.49984Z" fill="url(#paint0_linear_60_430)"/>
<path d="M17.5926 28.501C19.5922 28.501 21.5099 27.7503 22.9237 26.4142C24.3377 25.078 25.132 23.2658 25.132 21.3762L25.132 9.50009C25.132 8.24025 25.6616 7.03224 26.6042 6.14147C27.5469 5.25069 28.8254 4.75017 30.1585 4.75017L35.185 4.75017L35.185 8.28698e-05L30.1587 8.30203e-05C27.4926 8.31002e-05 24.9356 1.00094 23.0502 2.78249C21.165 4.56422 20.1059 6.98059 20.1059 9.50009L20.1059 21.3758C20.1059 22.0057 19.841 22.6098 19.3698 23.0553C18.8984 23.5007 18.2592 23.7509 17.5926 23.7509C16.926 23.7509 16.2868 23.5007 15.8155 23.0553C15.3441 22.6098 15.0793 22.0057 15.0793 21.3758L15.0793 9.50009C15.0793 6.98059 14.0202 4.56422 12.1349 2.78249C10.2497 1.00094 7.69268 8.3693e-05 5.02651 8.37728e-05L-1.57539e-06 8.39233e-05L-1.31279e-06 4.75089L5.02651 4.75088C6.35944 4.75088 7.6378 5.25122 8.58039 6.14182C9.52299 7.03242 10.0526 8.24042 10.0528 9.50009L10.0528 21.3758C10.0528 22.3115 10.2478 23.2381 10.6267 24.1026C11.0056 24.9671 11.5609 25.7525 12.2611 26.4142C12.9612 27.0758 13.7924 27.6006 14.7072 27.9587C15.622 28.3167 16.6025 28.501 17.5926 28.501Z" fill="url(#paint1_linear_60_430)"/>
<defs>
<linearGradient id="paint0_linear_60_430" x1="17.5926" y1="33.6965" x2="17.5926" y2="-2.8693" gradientUnits="userSpaceOnUse">
<stop stop-color="#F54A48"/>
<stop offset="1" stop-color="#FA982F"/>
</linearGradient>
<linearGradient id="paint1_linear_60_430" x1="17.5925" y1="33.7166" x2="17.5925" y2="-2.87851" gradientUnits="userSpaceOnUse">
<stop stop-color="#F54A48"/>
<stop offset="1" stop-color="#FA982F"/>
</linearGradient>
</defs>
</svg>
