<svg width="14" height="14" viewBox="0 0 14 14" fill="none" xmlns="http://www.w3.org/2000/svg">
<path fill-rule="evenodd" clip-rule="evenodd" d="M7 14C10.866 14 14 10.866 14 7C14 3.13401 10.866 0 7 0C3.13401 0 0 3.13401 0 7C0 10.866 3.13401 14 7 14ZM11.0404 5.20711C11.4309 4.81658 11.4309 4.18342 11.0404 3.79289C10.6499 3.40237 10.0167 3.40237 9.62619 3.79289L5.74996 7.66912L4.37373 6.29289C3.98321 5.90237 3.35004 5.90237 2.95952 6.29289C2.56899 6.68342 2.56899 7.31658 2.95952 7.70711L5.04285 9.79044C5.43338 10.181 6.06654 10.181 6.45707 9.79044L11.0404 5.20711Z" fill="#34C38F"/>
</svg>
