<svg width="14" height="14" viewBox="0 0 14 14" fill="none" xmlns="http://www.w3.org/2000/svg">
	<path fill-rule="evenodd" clip-rule="evenodd" d="M7 14C10.866 14 14 10.866 14 7C14 3.13401 10.866 0 7 0C3.13401 0 0 3.13401 0 7C0 10.866 3.13401 14 7 14ZM5.20711 3.79289C4.81658 3.40237 4.18342 3.40237 3.79289 3.79289C3.40237 4.18342 3.40237 4.81658 3.79289 5.20711L5.58579 7L3.79289 8.79289C3.40237 9.18342 3.40237 9.81658 3.79289 10.2071C4.18342 10.5976 4.81658 10.5976 5.20711 10.2071L7 8.41421L8.79289 10.2071C9.18342 10.5976 9.81658 10.5976 10.2071 10.2071C10.5976 9.81658 10.5976 9.18342 10.2071 8.79289L8.41421 7L10.2071 5.20711C10.5976 4.81658 10.5976 4.18342 10.2071 3.79289C9.81658 3.40237 9.18342 3.40237 8.79289 3.79289L7 5.58579L5.20711 3.79289Z" fill="#FA982F" />
</svg>
